<?xml version="1.0" encoding="UTF-8" standalone="no"?>
<!-- Created with Inkscape (http://www.inkscape.org/) -->

<svg
   xmlns:dc="http://purl.org/dc/elements/1.1/"
   xmlns:cc="http://creativecommons.org/ns#"
   xmlns:rdf="http://www.w3.org/1999/02/22-rdf-syntax-ns#"
   xmlns:svg="http://www.w3.org/2000/svg"
   xmlns="http://www.w3.org/2000/svg"
   xmlns:sodipodi="http://sodipodi.sourceforge.net/DTD/sodipodi-0.dtd"
   xmlns:inkscape="http://www.inkscape.org/namespaces/inkscape"
   width="110"
   height="110"
   id="svg2988"
   version="1.1"
   inkscape:version="0.47pre4 "
   sodipodi:docname="GB.svg">
  <defs
     id="defs2990">
    <inkscape:perspective
       sodipodi:type="inkscape:persp3d"
       inkscape:vp_x="0 : 526.18109 : 1"
       inkscape:vp_y="0 : 1000 : 0"
       inkscape:vp_z="744.09448 : 526.18109 : 1"
       inkscape:persp3d-origin="372.04724 : 350.78739 : 1"
       id="perspective2996" />
    <inkscape:perspective
       id="perspective3006"
       inkscape:persp3d-origin="0.5 : 0.33333333 : 1"
       inkscape:vp_z="1 : 0.5 : 1"
       inkscape:vp_y="0 : 1000 : 0"
       inkscape:vp_x="0 : 0.5 : 1"
       sodipodi:type="inkscape:persp3d" />
    <inkscape:perspective
       id="perspective2910"
       inkscape:persp3d-origin="0.5 : 0.33333333 : 1"
       inkscape:vp_z="1 : 0.5 : 1"
       inkscape:vp_y="0 : 1000 : 0"
       inkscape:vp_x="0 : 0.5 : 1"
       sodipodi:type="inkscape:persp3d" />
  </defs>
  <sodipodi:namedview
     id="base"
     pagecolor="#ffffff"
     bordercolor="#666666"
     borderopacity="1.0"
     inkscape:pageopacity="0.0"
     inkscape:pageshadow="2"
     inkscape:zoom="5.6"
     inkscape:cx="112.19755"
     inkscape:cy="62.578514"
     inkscape:document-units="px"
     inkscape:current-layer="layer1"
     showgrid="false"
     inkscape:window-width="1680"
     inkscape:window-height="994"
     inkscape:window-x="-4"
     inkscape:window-y="-4"
     inkscape:window-maximized="1" />
  <metadata
     id="metadata2993">
    <rdf:RDF>
      <cc:Work
         rdf:about="">
        <dc:format>image/svg+xml</dc:format>
        <dc:type
           rdf:resource="http://purl.org/dc/dcmitype/StillImage" />
        <dc:title />
      </cc:Work>
    </rdf:RDF>
  </metadata>
  <g
     inkscape:label="Layer 1"
     inkscape:groupmode="layer"
     id="layer1">
    <path
       style="fill:#ffffff;stroke:#000000;stroke-width:0.36511856px;stroke-linecap:butt;stroke-linejoin:miter;stroke-opacity:1"
       d="m 46.878181,1.8287229 c 0,0.3628523 0.105387,0.7443363 0,1.0885669 -0.695377,2.2715451 -2.303773,3.1712891 -2.99915,5.442824 -0.434486,1.4193172 -0.489434,2.9651782 -0.999717,4.3542572 -0.175024,0.476455 -0.788964,0.629593 -0.999717,1.088567 -0.471274,1.026318 -0.528452,2.239382 -0.999716,3.2657 -0.210763,0.458974 -0.716956,0.678036 -0.999717,1.088567 -0.720906,1.04663 -1.462101,2.09552 -1.999434,3.26569 -0.149035,0.324551 0.105377,0.744327 0,1.088567 -0.2972,0.97083 -1.702243,3.383427 -1.999433,4.354257 -0.105387,0.344241 0.235632,0.831988 0,1.088567 -5.286504,5.756318 1.551838,-5.556651 -2.99916,4.354258 -0.421516,0.917958 -1.577918,1.259175 -1.999434,2.177133 -0.471274,1.026308 -0.367438,2.347732 -0.999717,3.265701 -0.447085,0.64909 -1.472541,0.514829 -1.999433,1.088556 -0.235632,0.25658 0.149025,0.764017 0,1.088567 -0.210763,0.458985 -0.788964,0.629583 -0.999717,1.088567 -0.794914,1.73112 1.926506,1.1415 -0.999717,3.265701 -0.554551,0.402549 -1.528169,-0.51316 -1.999443,0 -0.471265,0.513149 0.210763,1.488652 0,2.177123 -0.29805,0.973643 -1.476601,1.323188 -1.999424,2.177137 -3.624269,7.892725 1.053785,-1.721173 -1.999443,3.26569 -0.413327,0.675103 -0.552632,1.528034 -0.999717,2.177134 -0.32111,0.466203 -3.695807,3.694263 -3.998867,4.354257 -0.149025,0.32455 0.235632,0.831987 0,1.088567 -0.235643,0.256579 -0.764085,-0.25658 -0.999717,0 -0.235642,0.256579 0.149025,0.764017 0,1.088567 -0.59983,1.306274 -2.39932,1.959416 -2.99915,3.26569 -0.149035,0.32455 0.235632,0.831987 0,1.088567 -0.235643,0.256569 -0.764085,-0.25658 -0.9997271,0 -0.2356322,0.256569 0.2356421,0.831987 0,1.088567 -0.2356322,0.256579 -0.7016566,-0.16228 -0.9997167,0 -0.421516,0.229487 -0.6664778,0.725704 -0.9997167,1.088567 -0.333239,0.362852 -0.7889538,0.629582 -0.9997168,1.088556 -0.1490256,0.32455 0.2356422,0.831998 0,1.088567 -0.5974607,0.650566 -1.9994341,-1.176605 -1.9994341,1.088567 0,0.362852 0.6664779,0 0.9997168,0 0.9997173,0 1.9994341,0 2.9991508,0 2.3326818,0 4.6653548,0 6.9980268,0 5.998311,0 11.996612,0 17.994912,0 19.661117,0 39.322229,0 58.983336,0 2.99915,0 5.998301,0 8.997471,0 0.33324,0 0.76407,0.25658 0.99971,0 0.23564,-0.25658 0,-0.725715 0,-1.088567 0,-0.362852 0.23564,-0.831987 0,-1.088567 -0.23564,-0.256579 -0.76408,0.25658 -0.99971,0 -0.23565,-0.256579 0.14902,-0.764016 0,-1.088556 -2.080297,-4.530354 0.069,1.163705 -1.99945,-1.088567 -0.235635,-0.25658 0.23565,-0.831998 0,-1.088567 -0.235635,-0.25658 -0.701659,0.16227 -0.99972,0 -0.421516,-0.229487 -0.666477,-0.725705 -0.999716,-1.088567 -0.333239,-0.362852 -0.788954,-0.629582 -0.999717,-1.088567 -0.149026,-0.32454 0.184854,-0.78665 0,-1.088556 -0.522834,-0.853949 -1.433913,-1.356082 -1.999435,-2.177134 -0.447085,-0.6491 -0.472824,-1.603406 -0.999716,-2.177134 -0.235633,-0.256579 -0.764085,0.25658 -0.999717,0 -0.235632,-0.256579 0.149025,-0.764017 0,-1.088556 -0.210763,-0.458985 -0.788964,-0.629593 -0.999717,-1.088567 -0.149035,-0.32455 0.235632,-0.831988 0,-1.088567 -0.235642,-0.25658 -0.764085,0.256579 -0.999717,0 -0.235642,-0.25658 0,-0.725715 0,-1.088567 -0.333249,-0.362852 -0.6076,-0.803917 -0.999726,-1.088567 -0.61999,-0.450065 -1.552339,-0.439467 -1.999424,-1.088567 -0.632279,-0.917958 -0.528452,-2.239382 -0.999727,-3.26569 -0.210753,-0.458984 -0.738295,-0.661593 -0.999717,-1.08857 -0.413326,-0.675093 -0.58638,-1.50203 -0.999716,-2.177123 -0.261412,-0.426975 -0.666478,-0.725715 -0.999717,-1.088577 -0.333239,-0.362853 -0.578201,-0.85907 -0.999717,-1.088557 -0.29806,-0.16228 -0.850692,0.32455 -0.999717,0 -0.29806,-0.6491 0.29806,-1.528044 0,-2.177134 -0.149025,-0.32455 -0.666478,0 -0.999716,0 -0.333239,-0.362852 -0.850692,-0.601747 -0.999717,-1.088567 -0.210763,-0.688461 0.369698,-1.573299 0,-2.177123 -0.413336,-0.675103 -1.472541,-0.514849 -1.999434,-1.088567 -0.235642,-0.25658 0.235632,-0.831987 0,-1.088567 -0.235642,-0.256579 -0.764084,0.25658 -0.999717,0 -2.068451,-2.252282 3.160865,0.08807 -0.999726,-2.177133 -0.29805,-0.16227 -0.764075,0.256579 -0.999717,0 -2.068451,-2.252283 3.160875,0.08807 -0.999717,-2.177124 -0.29805,-0.16228 -0.764074,0.256569 -0.999717,0 -0.235632,-0.25658 0.149035,-0.764017 0,-1.088567 -3.315639,-3.610318 0.471275,1.026308 -0.999716,-2.177134 -0.421516,-0.917958 -1.577918,-1.259165 -1.999434,-2.177133 -0.149025,-0.32454 0.235632,-0.831977 0,-1.088557 -0.235632,-0.256579 -0.701657,0.16227 -0.999717,0 -0.265431,-0.144514 -2.866434,-2.976673 -2.99915,-3.2657 -0.149035,-0.32454 0.235632,-0.831988 0,-1.088567 -0.235642,-0.25658 -0.764081,0.256579 -0.999713,0 -0.235642,-0.25658 0.149025,-0.764017 0,-1.088557 -0.421526,-0.917968 -1.577917,-1.259175 -1.999433,-2.177134 -0.149035,-0.32455 0.235632,-0.831987 0,-1.088566 -0.235642,-0.25658 -0.764085,0.256579 -0.999727,0 -0.235632,-0.25658 0.235642,-0.831988 0,-1.088567 -0.235632,-0.25658 -0.764075,0.256579 -0.999717,0 -0.235632,-0.25658 0.235642,-0.831988 0,-1.088567 -0.235632,-0.256569 -0.764074,0.256579 -0.999717,0 -0.235632,-0.256569 0.149035,-0.764007 0,-1.088557 C 59.663756,11.16683 59.208032,10.9001 58.874793,10.537247 58.541554,10.174395 58.296592,9.6781676 57.875076,9.4486805 c -0.29805,-0.1622699 -0.764085,0.2565796 -0.999717,0 -0.235632,-0.2565795 0.235632,-0.8319871 0,-1.0885667 -0.235632,-0.2565694 -0.666478,0 -0.999717,0 0,-0.3628522 0.149025,-0.7640168 0,-1.0885668 -2.080291,-4.5303432 0.069,1.1637253 -1.999433,-1.0885567 -0.235642,-0.2565796 0.235632,-0.8319873 0,-1.0885668 -0.235642,-0.2565796 -0.764085,0.2565795 -0.999717,0 -0.235642,-0.2565796 0.235632,-0.8319975 0,-1.0885669 -0.235642,-0.2565795 -0.764085,0.2565694 -0.999717,0 -0.235642,-0.2565795 0.105377,-0.7443362 0,-1.0885668 C 51.309284,1.0635353 50.54382,-0.71126293 46.878181,1.8287229 z"
       id="path3723" />
    <path
       style="fill:none;stroke:#fc0300;stroke-width:0.36185867px;stroke-linecap:butt;stroke-linejoin:miter;stroke-opacity:0.96341463"
       d="m 49.877207,10.538844 c 1.9995,0 3.999,0 5.9985,0 0.33325,0 1.333,0 0.99975,0 -4.73221,0 -0.0691,0 0.99975,0"
       id="path4251" />
    <path
       style="fill:none;stroke:#f30000;stroke-width:0.36185867px;stroke-linecap:butt;stroke-linejoin:miter;stroke-opacity:1"
       d="m 44.878447,16.953914 c 3.3325,0 6.66501,0 9.99751,0 0.33325,0 0.6665,0 0.99975,0 0.33325,0 0.99975,-0.35639 0.99975,0 0,0.35639 -1.333,0 -0.99975,0 0.99975,0 1.9995,0 2.99925,0 0.33325,0 0.76411,0.25201 0.99975,0 0.23565,-0.25201 -0.23564,-0.81717 0,-1.06918 0.23565,-0.25201 0.6665,0 0.99975,0 0.33325,0 0.6665,0 0.99975,0"
       id="path4253" />
    <path
       style="fill:none;stroke:#f30000;stroke-width:0.36185867px;stroke-linecap:butt;stroke-linejoin:miter;stroke-opacity:1"
       d="m 42.878947,25.507344 c 2.33275,0 4.6655,0 6.99826,0 0.33325,0 0.6665,0 0.99975,0 0.33325,0 0.70168,0.15938 0.99975,0 0.42153,-0.22541 0.55264,-0.9098 0.99975,-1.06918 0.51504,-0.18361 5.9407,0 6.99825,0 0.33325,0 0.6665,0 0.99975,0 0.33325,0 0.70169,0.15938 0.99975,0 0.42154,-0.22541 0.57822,-0.84378 0.99976,-1.06918 0.29806,-0.15938 0.99975,-0.35639 0.99975,0 0,0.35639 -1.33301,0 -0.99975,0 1.9995,0 3.998996,0 5.998496,0 0.33325,0 0.99975,-0.35639 0.99975,0 0,0.35639 -0.6665,0 -0.99975,0 -0.33325,0 -0.6665,0 -0.99975,0"
       id="path4255" />
    <path
       style="fill:none;stroke:#f10000;stroke-width:0.36185867px;stroke-linecap:butt;stroke-linejoin:miter;stroke-opacity:1"
       d="m 37.880197,29.784054 c 2.33275,0 4.6655,0 6.99825,0 2.666,0 5.33201,0 7.99801,0 0.34059,0 3.45793,0.19288 3.999,0 0.70693,-0.25201 1.27658,-0.8759 1.9995,-1.06918 1.03563,-0.27689 2.85263,0 3.99901,0 1.66625,0 3.332496,0 4.998746,0 0.6665,0 1.333,0 1.9995,0 0.33325,0 0.99975,-0.35639 0.99975,0 0,0.35639 -0.6665,0 -0.99975,0"
       id="path4257" />
    <path
       style="fill:none;stroke:#f40000;stroke-width:0.36185867px;stroke-linecap:butt;stroke-linejoin:miter;stroke-opacity:1"
       d="m 32.881437,38.337474 c 0.48904,-0.26149 1.51047,0.2615 1.9995,0 0.42154,-0.2254 0.55265,-0.90979 0.99976,-1.06917 0.94844,-0.33811 1.9995,0 2.99925,0 1.66625,0 3.3325,0 4.99875,0 0.33325,0 0.76411,0.252 0.99975,0 0.23565,-0.25201 -0.29807,-0.9098 0,-1.06918 0.59614,-0.31877 1.333,0 1.9995,0 1.66625,0 3.33251,0 4.99876,0 5.332,0 10.664,0 15.996006,0 2.33275,0 4.6655,0 6.99825,0 0.33325,0 0.6665,0 0.99975,0 0.33325,0 0.99976,-0.35639 0.99976,0 0,0.35639 -0.66651,0 -0.99976,0"
       id="path4259" />
    <path
       style="fill:none;stroke:#00e900;stroke-width:0.36185867px;stroke-linecap:butt;stroke-linejoin:miter;stroke-opacity:1"
       d="m 12.886427,63.997757 c 0,2.13836 0,4.27671 0,6.41507 0,0.35639 0.33325,1.06918 0,1.06918 -0.33325,0 0,-0.71279 0,-1.06918"
       id="path4261" />
    <path
       style="fill:none;stroke:#00f400;stroke-width:0.36185867px;stroke-linecap:butt;stroke-linejoin:miter;stroke-opacity:1"
       d="m 17.885177,59.721047 c 0,2.49475 0,4.9895 0,7.48425 0,0.35639 0,0.71278 0,1.06917 0,0.3564 0.14904,0.75042 0,1.06918 -0.21076,0.45081 -0.6665,0.71279 -0.99975,1.06918"
       id="path4263" />
    <path
       style="fill:none;stroke:#00e500;stroke-width:0.36185867px;stroke-linecap:butt;stroke-linejoin:miter;stroke-opacity:1"
       d="m 22.883937,52.236797 c 0,3.20754 0,6.41507 0,9.62261 0,0.35639 0,0.71278 0,1.06917 0,0.3564 -0.14904,0.75042 0,1.06918 0.21076,0.45081 0.78898,0.61837 0.99975,1.06918 0.13143,0.28113 0,3.71762 0,4.27671"
       id="path4265" />
    <path
       style="fill:none;stroke:#00ef00;stroke-width:0.36185867px;stroke-linecap:butt;stroke-linejoin:miter;stroke-opacity:1"
       d="m 28.882437,45.821724 c 0,3.563933 0,7.127863 0,10.691793 0,0.48151 0.15213,2.88214 0,3.20753 -0.21077,0.4508 -0.78898,0.61837 -0.99975,1.06918 -0.29807,0.63753 0.47129,1.63434 0,2.13835 -0.23564,0.25201 -0.76411,-0.252 -0.99975,0 -0.23565,0.25201 0,0.71279 0,1.06918 0,0.3564 0,0.71279 0,1.06918 0,0.2593 -0.0322,3.17315 0,3.20753 0.23564,0.25201 0.76411,-0.25201 0.99975,0 0.23564,0.25201 0.33325,1.06918 0,1.06918 -0.33325,0 -0.33325,-1.06918 0,-1.06918 0.47129,0 0.57822,0.84378 0.99975,1.06918 0.29807,0.15939 0.6665,0 0.99975,0 0.33325,0 0.6665,0 0.99975,0"
       id="path4267" />
    <path
       style="fill:none;stroke:#00f400;stroke-width:0.36185867px;stroke-linecap:butt;stroke-linejoin:miter;stroke-opacity:1"
       d="m 36.880447,43.683364 c 0,2.85115 0.33325,-0.35639 -0.99975,1.06919 -0.23565,0.252 0,0.71278 0,1.06917 0,0.42266 0.21348,4.889263 0,5.345893 -0.21077,0.45081 -0.78899,0.61838 -0.99976,1.06918 -0.15212,0.32539 0,2.72602 0,3.20754 0,2.13835 0,4.27671 0,6.41507 0,0.71212 0,1.42623 0,2.13835 0,0.3564 0.33325,1.06918 0,1.06918 -0.33325,0 0,-1.42557 0,-1.06918 0,0.71279 0,1.42557 0,2.13836 0,0.35639 0.33325,1.06918 0,1.06918 -0.33325,0 0,-1.42558 0,-1.06918 0,0.71278 0,1.42557 0,2.13835 0,0.3564 -0.23564,0.81718 0,1.06918 0.23565,0.25201 0.76411,-0.252 0.99976,0 0.23564,0.25201 0.33325,1.06918 0,1.06918 -0.47129,0 -0.66651,-0.71279 -0.99976,-1.06918"
       id="path4269" />
    <path
       style="fill:none;stroke:#00f900;stroke-width:0.36185867px;stroke-linecap:butt;stroke-linejoin:miter;stroke-opacity:1"
       d="m 42.878947,44.752554 c 0,8.909813 0,17.819633 0,26.729453"
       id="path4273" />
    <path
       style="fill:none;stroke:#00fa00;stroke-width:0.36185867px;stroke-linecap:butt;stroke-linejoin:miter;stroke-opacity:1"
       d="m 49.877207,42.614194 c -0.20129,0.64579 0.20128,1.49256 0,2.13836 -0.23565,0.75602 -0.76411,1.38233 -0.99975,2.13835 -0.19871,0.637523 0,5.379183 0,6.415073 0,4.9895 0,9.979 0,14.96849"
       id="path4275" />
    <path
       style="fill:none;stroke:#0000f7;stroke-width:0.36185867px;stroke-linecap:butt;stroke-linejoin:miter;stroke-opacity:1"
       d="m 57.875207,41.545014 c 0,1.78196 0,3.56393 0,5.34589 0,0.712783 0.21077,1.462153 0,2.138363 -0.14903,0.47815 -0.78898,0.61837 -0.99975,1.06918 -0.14903,0.31876 0,0.71278 0,1.06917 0,0.71279 0,1.42558 0,2.13836 0,2.13836 0,4.27671 0,6.41507 0,0.35639 -0.23564,0.81717 0,1.06918 0.23564,0.252 0.76411,-0.25201 0.99975,0 0.0402,0.043 0,3.88407 0,4.27671 0,0.35639 0.23565,0.81717 0,1.06918 -0.23564,0.25201 -0.76411,-0.25201 -0.99975,0 -0.23564,0.25201 0.23564,0.81717 0,1.06918 -1.333,1.42557 -0.99975,-1.78197 -0.99975,1.06917 0,0.3564 0,0.71279 0,1.06918 0,0.35639 0.33325,1.06918 0,1.06918 -0.33325,0 0,-0.71279 0,-1.06918"
       id="path4277" />
    <path
       style="fill:none;stroke:#0000f4;stroke-width:0.36185867px;stroke-linecap:butt;stroke-linejoin:miter;stroke-opacity:1"
       d="m 62.873967,44.752554 c 0,2.13835 0,4.276713 0,6.415063 0,2.85115 0,5.70229 0,8.55343 0,0.35639 0,0.71279 0,1.06918 0,0.35639 -0.23565,0.81717 0,1.06918 1.333,1.42557 0.99975,-1.78197 0.99975,1.06917 0,1.78197 0,3.56393 0,5.34589 0,0.71279 0,1.42557 0,2.13836 0,0.35639 0.33325,1.06918 0,1.06918 -0.33325,0 0,-0.71279 0,-1.06918"
       id="path4279" />
    <path
       style="fill:none;stroke:#0000ef;stroke-width:0.36185867px;stroke-linecap:butt;stroke-linejoin:miter;stroke-opacity:1"
       d="m 69.872213,43.683364 c -1.78393,0.0643 -0.60077,6.630883 -0.99975,7.484253 -0.21077,0.45081 -0.78898,0.61838 -0.99975,1.06918 -0.14904,0.31877 0,0.71279 0,1.06918 0,0.35639 0,0.71279 0,1.06918 0,2.13836 0,4.27671 0,6.41507 0,1.06918 0,2.13835 0,3.20753 0,0.3564 0,1.42557 0,1.06918 0,-0.71278 0,-2.85114 0,-2.13836 0,1.06918 -0.31615,2.19323 0,3.20754 0.10538,0.3381 0.76411,-0.25201 0.99975,0 0.33161,0.35464 -0.33162,1.78371 0,2.13835 0.23564,0.25201 0.76411,-0.25201 0.99975,0 0.23564,0.25201 0,0.71279 0,1.06918 0,0.35639 0,0.71279 0,1.06918"
       id="path4281" />
    <path
       style="fill:none;stroke:#0000f1;stroke-width:0.36185867px;stroke-linecap:butt;stroke-linejoin:miter;stroke-opacity:1"
       d="m 77.870223,40.475834 c 0,7.127853 0,14.255713 0,21.383573 0,0.74365 0.18077,4.95924 0,5.34589 -0.21077,0.4508 -0.78899,0.61837 -0.99975,1.06917 -0.14904,0.31877 0,0.71279 0,1.06918 0,0.35639 0,0.71279 0,1.06918"
       id="path4283" />
    <path
       style="fill:none;stroke:#0000f1;stroke-width:0.36185867px;stroke-linecap:butt;stroke-linejoin:miter;stroke-opacity:1"
       d="m 85.868223,55.444337 c 0,6.15922 0,6.59926 0,11.76096"
       id="path4285" />
    <path
       style="fill:none;stroke:#0000fc;stroke-width:0.36185867px;stroke-linecap:butt;stroke-linejoin:miter;stroke-opacity:1"
       d="m 94.865983,65.066937 c 0,0.7211 0,1.41726 0,2.13836"
       id="path4287" />
    <text
       xml:space="preserve"
       style="font-size:21.22537231px;font-style:normal;font-weight:normal;fill:#000000;fill-opacity:1;stroke:none;font-family:Bitstream Vera Sans"
       x="49.635414"
       y="38.267048"
       id="text4289"
       transform="scale(0.80024724,1.2496138)"><tspan
         sodipodi:role="line"
         id="tspan4291"
         x="49.635414"
         y="38.267048">GB</tspan></text>
    <rect
       style="fill:#916f6f"
       id="rect2892"
       width="109.64286"
       height="15.535714"
       x="0.17857143"
       y="70.35714" />
    <path
       sodipodi:type="arc"
       style="fill:#ffe6d5"
       id="path2894"
       sodipodi:cx="29.553572"
       sodipodi:cy="98.839287"
       sodipodi:rx="10.625"
       sodipodi:ry="11.517858"
       d="m 40.178572,98.839287 a 10.625,11.517858 0 1 1 -21.25,0 10.625,11.517858 0 1 1 21.25,0 z"
       transform="matrix(0.93277311,0,0,1.0387597,5.5582233,-4.8131229)" />
    <path
       sodipodi:type="arc"
       style="fill:#ffe6d5"
       id="path2894-5"
       sodipodi:cx="29.553572"
       sodipodi:cy="98.839287"
       sodipodi:rx="10.625"
       sodipodi:ry="11.517858"
       d="m 40.178572,98.839287 a 10.625,11.517858 0 1 1 -21.25,0 10.625,11.517858 0 1 1 21.25,0 z"
       transform="matrix(0.93277311,0,0,1.0620155,45.290365,-7.2902833)" />
  </g>
</svg>
