<?xml version="1.0" encoding="UTF-8" standalone="no"?>
<!-- Created with Inkscape (http://www.inkscape.org/) -->

<svg
   xmlns:dc="http://purl.org/dc/elements/1.1/"
   xmlns:cc="http://creativecommons.org/ns#"
   xmlns:rdf="http://www.w3.org/1999/02/22-rdf-syntax-ns#"
   xmlns:svg="http://www.w3.org/2000/svg"
   xmlns="http://www.w3.org/2000/svg"
   xmlns:sodipodi="http://sodipodi.sourceforge.net/DTD/sodipodi-0.dtd"
   xmlns:inkscape="http://www.inkscape.org/namespaces/inkscape"
   width="200"
   height="200"
   id="svg2892"
   version="1.1"
   inkscape:version="0.47pre4 "
   sodipodi:docname="GC.svg">
  <defs
     id="defs2894">
    <inkscape:perspective
       sodipodi:type="inkscape:persp3d"
       inkscape:vp_x="0 : 526.18109 : 1"
       inkscape:vp_y="0 : 1000 : 0"
       inkscape:vp_z="744.09448 : 526.18109 : 1"
       inkscape:persp3d-origin="372.04724 : 350.78739 : 1"
       id="perspective2900" />
    <inkscape:perspective
       id="perspective2910"
       inkscape:persp3d-origin="0.5 : 0.33333333 : 1"
       inkscape:vp_z="1 : 0.5 : 1"
       inkscape:vp_y="0 : 1000 : 0"
       inkscape:vp_x="0 : 0.5 : 1"
       sodipodi:type="inkscape:persp3d" />
  </defs>
  <sodipodi:namedview
     id="base"
     pagecolor="#ffffff"
     bordercolor="#666666"
     borderopacity="1.0"
     inkscape:pageopacity="0.0"
     inkscape:pageshadow="2"
     inkscape:zoom="3.959798"
     inkscape:cx="44.129126"
     inkscape:cy="113.12617"
     inkscape:document-units="px"
     inkscape:current-layer="layer1"
     showgrid="false"
     width="200px"
     inkscape:window-width="1680"
     inkscape:window-height="994"
     inkscape:window-x="-4"
     inkscape:window-y="-4"
     inkscape:window-maximized="1" />
  <metadata
     id="metadata2897">
    <rdf:RDF>
      <cc:Work
         rdf:about="">
        <dc:format>image/svg+xml</dc:format>
        <dc:type
           rdf:resource="http://purl.org/dc/dcmitype/StillImage" />
        <dc:title />
      </cc:Work>
    </rdf:RDF>
  </metadata>
  <g
     inkscape:label="Layer 1"
     inkscape:groupmode="layer"
     id="layer1"
     transform="translate(0,-852.36216)">
    <path
       style="fill:#ffffff;stroke:#000000;stroke-width:0.87412071px;stroke-linecap:butt;stroke-linejoin:miter;stroke-opacity:1"
       d="m 85.766008,856.71456 c 0,1.02976 0.212839,2.11242 0,3.08934 -1.4044,6.44651 -4.652746,8.99995 -6.057143,15.44647 -0.877492,4.02797 -0.98847,8.41502 -2.019046,12.3572 -0.353483,1.35214 -1.593403,1.78677 -2.019045,3.08931 -0.951796,2.91262 -1.067274,6.35526 -2.019048,9.26793 -0.425661,1.30252 -1.447976,1.92421 -2.019046,3.08929 -1.455955,2.97029 -2.952886,5.94696 -4.038094,9.26785 -0.300993,0.9211 0.212819,2.1124 0,3.08935 -0.600227,2.75517 -3.43788,9.60199 -4.038092,12.35716 -0.212841,0.97696 0.475888,2.36117 0,3.0893 -10.676722,16.33619 3.134123,-15.76953 -6.05716,12.3572 -0.8513,2.60515 -3.186789,3.57349 -4.038093,6.17859 -0.951795,2.91262 -0.742084,6.6628 -2.019046,9.26793 -0.902942,1.84208 -2.973973,1.46109 -4.038096,3.08925 -0.475887,0.7282 0.300975,2.16826 0,3.08932 -0.425658,1.3026 -1.593402,1.78672 -2.019042,3.08932 -1.605426,4.91286 3.890804,3.23956 -2.019049,9.26795 -1.119985,1.14241 -3.08632,-1.45637 -4.038113,0 -0.951776,1.45627 0.425661,4.22481 0,6.17861 -0.601949,2.76314 -2.982172,3.75506 -4.038073,6.17835 -7.319644,22.39932 2.128243,-4.8845 -4.038112,9.26802 -0.834763,1.9158 -1.116106,4.3365 -2.019047,6.1786 -0.64852,1.3229 -7.464122,10.484 -8.076189,12.3566 -0.300972,0.9214 0.47589,2.3613 0,3.0897 -0.475906,0.728 -1.543159,-0.7284 -2.019044,0 -0.475909,0.728 0.300971,2.168 0,3.0893 -1.21143,3.707 -4.845711,5.5605 -6.057139,9.2677 -0.300994,0.9212 0.475886,2.3612 0,3.0895 -0.475909,0.7281 -1.543162,-0.7283 -2.019069,0 -0.475887,0.7281 0.475907,2.3608 0,3.0891 -0.475887,0.7283 -1.4170776,-0.4604 -2.0190456,0 -0.8513016,0.6512 -1.3460311,2.0594 -2.0190467,3.0891 -0.6730157,1.0298 -1.5933858,1.7869 -2.0190465,3.0894 -0.3009736,0.9213 0.4759073,2.3612 0,3.0895 -1.206642,1.8463 -4.03809366,-3.3395 -4.03809366,3.0893 0,1.0295 1.34603126,0 2.01904676,0 2.0190469,0 4.0380934,0 6.0571401,0 4.7111296,0 9.4222386,0 14.1333456,0 12.1143,0 24.228577,0 36.342859,0 39.707954,0 79.415909,0 119.123849,0 6.05712,0 12.11427,0 18.17143,0 0.67302,0 1.54314,0.7281 2.01904,0 0.47589,-0.7286 0,-2.0596 0,-3.0893 0,-1.03 0.47589,-2.3614 0,-3.0895 -0.4759,-0.728 -1.54315,0.7281 -2.01904,0 -0.4759,-0.728 0.30098,-2.1681 0,-3.0894 -4.2014,-12.8566 0.13935,3.3028 -4.0381,-3.0891 -0.4759,-0.7283 0.47589,-2.361 0,-3.0891 -0.4759,-0.7283 -1.41709,0.46 -2.01906,0 -0.8513,-0.6513 -1.34602,-2.0597 -2.01904,-3.0895 -0.67303,-1.0297 -1.59339,-1.7869 -2.01906,-3.0893 -0.30096,-0.9213 0.37335,-2.2323 0,-3.0893 -1.05592,-2.4234 -2.89594,-3.8484 -4.03809,-6.1784 -0.90294,-1.8422 -0.95492,-4.5502 -2.01904,-6.1785 -0.47589,-0.7282 -1.54317,0.7281 -2.01904,0 -0.47591,-0.7282 0.30095,-2.1684 0,-3.0894 -0.42567,-1.3023 -1.59341,-1.7868 -2.01905,-3.0893 -0.30099,-0.9212 0.47589,-2.3611 0,-3.0891 -0.47591,-0.7282 -1.54316,0.728 -2.01906,0 -0.47591,-0.7282 0,-2.0597 0,-3.0894 -0.67302,-1.0296 -1.22711,-2.28156 -2.01904,-3.0892 -1.25216,-1.27739 -3.13515,-1.24732 -4.03809,-3.08931 -1.27697,-2.60512 -1.06728,-6.3553 -2.01906,-9.26771 -0.42564,-1.30281 -1.49108,-1.87782 -2.01906,-3.08935 -0.83476,-1.91599 -1.18428,-4.26275 -2.01903,-6.17861 -0.52798,-1.21174 -1.34603,-2.05958 -2.01906,-3.08937 -0.67303,-1.02975 -1.16773,-2.438 -2.01906,-3.08924 -0.60195,-0.46058 -1.71807,0.92102 -2.01905,0 -0.60195,-1.84215 0.60199,-4.33654 0,-6.17866 -0.30097,-0.92106 -1.34601,0 -2.01902,0 -0.67302,-1.02973 -1.71807,-1.70773 -2.01907,-3.08932 -0.42563,-1.9538 0.74666,-4.46494 0,-6.17853 -0.83475,-1.91592 -2.97397,-1.46114 -4.03808,-3.0893 -0.4759,-0.72816 0.47588,-2.36118 0,-3.08935 -0.4759,-0.72813 -1.54316,0.72817 -2.01905,0 -4.17749,-6.39182 6.38375,0.2501 -2.01906,-6.17859 -0.60194,-0.4605 -1.54314,0.72816 -2.01905,0 -4.1775,-6.39188 6.38376,0.25008 -2.01905,-6.17857 -0.60194,-0.46056 -1.54314,0.72814 -2.01903,0 -0.4759,-0.72814 0.30099,-2.16826 0,-3.08929 -6.69634,-10.24596 0.95177,2.91258 -2.01905,-6.17864 -0.85132,-2.60514 -3.18678,-3.57345 -4.0381,-6.17862 -0.30098,-0.92103 0.4759,-2.36108 0,-3.08925 -0.47589,-0.72812 -1.41708,0.4605 -2.01904,0 -0.53607,-0.41015 -5.78913,-8.44765 -6.05714,-9.26792 -0.30099,-0.92103 0.47586,-2.36115 0,-3.08932 -0.47592,-0.72815 -1.54315,0.72817 -2.01905,0 -0.47591,-0.72815 0.30098,-2.16824 0,-3.08925 -0.85131,-2.60514 -3.18679,-3.5735 -4.0381,-6.1786 -0.30098,-0.92109 0.47589,-2.36117 0,-3.08933 -0.47589,-0.72814 -1.54315,0.72816 -2.01906,0 -0.47587,-0.72814 0.47591,-2.36115 0,-3.08929 -0.47587,-0.7282 -1.54314,0.72814 -2.01904,0 -0.47588,-0.7282 0.4759,-2.36115 0,-3.08931 -0.47588,-0.72813 -1.54314,0.72816 -2.01905,0 -0.47587,-0.72813 0.301,-2.16822 0,-3.08928 -0.42564,-1.30256 -1.34603,-2.05958 -2.01906,-3.08929 -0.673,-1.02976 -1.16774,-2.43806 -2.01902,-3.08932 -0.60196,-0.46051 -1.54318,0.72814 -2.01907,0 -0.47589,-0.72813 0.47589,-2.36115 0,-3.08931 -0.47589,-0.72813 -1.34603,0 -2.01904,0 0,-1.02974 0.30099,-2.16826 0,-3.08929 -4.201389,-12.8569 0.13937,3.30263 -4.038094,-3.08929 -0.475902,-0.72817 0.475894,-2.36114 0,-3.0893 -0.475902,-0.72815 -1.543153,0.72816 -2.019042,0 -0.475908,-0.72815 0.475889,-2.36116 0,-3.08928 -0.475908,-0.72817 -1.543158,0.72812 -2.019045,0 -0.475909,-0.72817 0.212821,-2.1124 0,-3.08931 -1.146116,-5.26091 -2.692063,-10.2977 -10.095251,-3.08934 z"
       id="path3723" />
    <path
       style="fill:none;stroke:#fc0300;stroke-width:1.11040521px;stroke-linecap:butt;stroke-linejoin:miter;stroke-opacity:0.96341463"
       d="m 78.323814,879.45806 c 6.685432,0 13.370865,0 20.056297,0 1.114233,0 4.456949,0 3.342719,0 -15.822393,0 -0.23106,0 3.34273,0"
       id="path4251" />
    <path
       style="fill:none;stroke:#f30000;stroke-width:0.9140355px;stroke-linecap:butt;stroke-linejoin:miter;stroke-opacity:1"
       d="m 74.03899,897.50084 c 7.677353,0 15.354728,0 23.03208,0 0.767744,0 1.535475,0 2.303206,0 0.767734,0 2.303204,-0.98705 2.303204,0 0,0.987 -3.070935,0 -2.303204,0 2.303204,0 4.606424,0 6.909604,0 0.76774,0 1.76037,0.69792 2.30322,0 0.54288,-0.69796 -0.54285,-2.2632 0,-2.96116 0.54288,-0.69792 1.53548,0 2.3032,0 0.76774,0 1.53549,0 2.30321,0"
       id="path4253" />
    <path
       style="fill:none;stroke:#f30000;stroke-width:0.92687786px;stroke-linecap:butt;stroke-linejoin:miter;stroke-opacity:1"
       d="m 65.316746,921.57813 c 5.495612,0 10.991223,0 16.48686,0 0.785087,0 1.570174,0 2.355263,0 0.785087,0 1.653052,0.44384 2.355262,0 0.99306,-0.62777 1.301937,-2.53377 2.35526,-2.9776 1.213358,-0.51139 13.995399,0 16.486839,0 0.78509,0 1.57019,0 2.35526,0 0.78509,0 1.65307,0.44383 2.35526,0 0.99309,-0.62779 1.36219,-2.34993 2.35528,-2.97763 0.70219,-0.44388 2.35528,-0.99255 2.35528,0 0,0.99251 -3.1404,0 -2.35528,0 4.71053,0 9.42106,0 14.13157,0 0.78509,0 2.35526,-0.99255 2.35526,0 0,0.99251 -1.57017,0 -2.35526,0 -0.78508,0 -1.57019,0 -2.35526,0"
       id="path4255" />
    <path
       style="fill:none;stroke:#f10000;stroke-width:0.89150107px;stroke-linecap:butt;stroke-linejoin:miter;stroke-opacity:1"
       d="m 59.008488,933.64069 c 5.082656,0 10.165308,0 15.247962,0 5.808748,0 11.617518,0 17.426264,0 0.742087,0 7.534223,0.53729 8.713126,0 1.54027,-0.70205 2.78144,-2.44009 4.35654,-2.97853 2.25648,-0.77134 6.21541,0 8.71316,0 3.63047,0 7.26093,0 10.8914,0 1.45219,0 2.90436,0 4.35655,0 0.72611,0 2.17827,-0.99277 2.17827,0 0,0.99282 -1.45216,0 -2.17827,0"
       id="path4257" />
    <path
       style="fill:none;stroke:#f40000;stroke-width:0.87430817px;stroke-linecap:butt;stroke-linejoin:miter;stroke-opacity:1"
       d="m 51.194075,957.73626 c 1.017207,-0.73389 3.141791,0.73393 4.15898,0 0.876808,-0.63263 1.149516,-2.55347 2.079511,-3.00075 1.972764,-0.94897 4.158979,0 6.23847,0 3.465816,0 6.931635,0 10.39745,0 0.693164,0 1.589356,0.70727 2.07949,0 0.490154,-0.70731 -0.619988,-2.5535 0,-3.0008 1.239979,-0.8947 2.772655,0 4.158982,0 3.465815,0 6.931653,0 10.39747,0 11.090612,0 22.181212,0 33.271852,0 4.85215,0 9.70429,0 14.55643,0 0.69318,0 1.38633,0 2.07949,0 0.69317,0 2.07951,-1.00027 2.07951,0 0,1.00023 -1.38634,0 -2.07951,0"
       id="path4259" />
    <path
       style="fill:none;stroke:#00e900;stroke-width:0.85140735px;stroke-linecap:butt;stroke-linejoin:miter;stroke-opacity:1"
       d="m 16.928956,1030.0133 c 0,6.0221 0,12.0444 0,18.0668 0,1.0034 0.655074,3.0108 0,3.0108 -0.655073,0 0,-2.0074 0,-3.0108"
       id="path4261" />
    <path
       style="fill:none;stroke:#00f400;stroke-width:0.85140735px;stroke-linecap:butt;stroke-linejoin:miter;stroke-opacity:1"
       d="m 26.755057,1017.9689 c 0,7.0257 0,14.0518 0,21.0776 0,1.0037 0,2.0075 0,3.0112 0,1.0037 0.292972,2.1134 0,3.0112 -0.414291,1.2696 -1.310145,2.0075 -1.965219,3.0112"
       id="path4263" />
    <path
       style="fill:none;stroke:#00e500;stroke-width:0.85140735px;stroke-linecap:butt;stroke-linejoin:miter;stroke-opacity:1"
       d="m 36.581181,996.89141 c 0,9.03319 0,18.06619 0,27.09959 0,1.0036 0,2.0073 0,3.0111 0,1.0037 -0.29297,2.1133 0,3.0112 0.414293,1.2695 1.550907,1.7416 1.965221,3.0112 0.258354,0.7916 0,10.4697 0,12.0444"
       id="path4265" />
    <path
       style="fill:none;stroke:#00ef00;stroke-width:0.94743294px;stroke-linecap:butt;stroke-linejoin:miter;stroke-opacity:1"
       d="m 48.37128,961.95273 c 0,12.57825 0,25.15701 0,37.73537 0,1.6995 0.295483,10.1718 0,11.3203 -0.409382,1.591 -1.532447,2.1823 -1.941829,3.7737 -0.578944,2.25 0.915394,5.768 0,7.5468 -0.457687,0.8894 -1.48414,-0.8894 -1.941824,0 -0.457709,0.8894 0,2.5158 0,3.7737 0,1.2578 0,2.5157 0,3.7736 0,0.9151 -0.06255,11.1991 0,11.3205 0.457684,0.8893 1.484137,-0.8894 1.941824,0 0.457689,0.8893 0.647275,3.7737 0,3.7737 -0.647276,0 -0.647276,-3.7737 0,-3.7737 0.915394,0 1.123085,2.9781 1.941829,3.7737 0.578943,0.5625 1.294551,0 1.941827,0 0.647275,0 1.294551,0 1.941826,0"
       id="path4267" />
    <path
       style="fill:none;stroke:#00f400;stroke-width:0.93055999px;stroke-linecap:butt;stroke-linejoin:miter;stroke-opacity:1"
       d="m 64.056055,956.42714 c 0,9.77218 0.642999,-1.2215 -1.928999,3.66463 -0.454682,0.8637 0,2.44295 0,3.66447 0,1.44879 0.411905,16.75771 0,18.32267 -0.406676,1.54507 -1.522341,2.11951 -1.929018,3.66457 -0.293513,1.11531 0,9.34333 0,10.99347 0,7.32915 0,14.65805 0,21.98695 0,2.441 0,4.8885 0,7.3292 0,1.2215 0.642999,3.6646 0,3.6646 -0.642999,0 0,-4.8861 0,-3.6646 0,2.443 0,4.8862 0,7.3289 0,1.2215 0.642999,3.6646 0,3.6646 -0.642999,0 0,-4.8862 0,-3.6646 0,2.4429 0,4.8861 0,7.3292 0,1.2215 -0.454662,2.8008 0,3.6647 0.454681,0.8637 1.474336,-0.8639 1.929018,0 0.454663,0.8637 0.642999,3.6646 0,3.6646 -0.909344,0 -1.286019,-2.4431 -1.929018,-3.6646"
       id="path4269" />
    <path
       style="fill:none;stroke:#00f900;stroke-width:0.85140735px;stroke-linecap:butt;stroke-linejoin:miter;stroke-opacity:1"
       d="m 75.885612,975.81372 c 0,25.09228 0,50.18458 0,75.27718"
       id="path4273" />
    <path
       style="fill:none;stroke:#00fa00;stroke-width:0.85140735px;stroke-linecap:butt;stroke-linejoin:miter;stroke-opacity:1"
       d="m 89.642177,969.79148 c -0.395679,1.81869 0.395658,4.20347 0,6.02224 -0.463222,2.129 -1.502022,3.89311 -1.965222,6.02224 -0.390605,1.79538 0,15.14927 0,18.06638 0,14.05176 0,28.10346 0,42.15536"
       id="path4275" />
    <path
       style="fill:none;stroke:#0000f7;stroke-width:0.85140735px;stroke-linecap:butt;stroke-linejoin:miter;stroke-opacity:1"
       d="m 105.36395,966.78033 c 0,5.01852 0,10.03707 0,15.05563 0,2.00745 0.41431,4.11769 0,6.02197 -0.29296,1.34673 -1.55092,1.74157 -1.96523,3.01115 -0.29294,0.89785 0,2.00745 0,3.0112 0,2.00742 0,4.01487 0,6.02206 0,6.02226 0,12.04456 0,18.06656 0,1.0037 -0.46321,2.3012 0,3.0112 0.46319,0.7096 1.50202,-0.71 1.96523,0 0.079,0.121 0,10.9383 0,12.0444 0,1.0037 0.46321,2.3011 0,3.0109 -0.46321,0.7099 -1.50204,-0.7098 -1.96523,0 -0.46321,0.7099 0.46319,2.3014 0,3.0111 -2.62029,4.0149 -1.96522,-5.0183 -1.96522,3.0112 0,1.0037 0,2.0074 0,3.0112 0,1.0037 0.65507,3.0112 0,3.0112 -0.65507,0 0,-2.0075 0,-3.0112"
       id="path4277" />
    <path
       style="fill:none;stroke:#0000f4;stroke-width:0.85140735px;stroke-linecap:butt;stroke-linejoin:miter;stroke-opacity:1"
       d="m 115.19006,975.81372 c 0,6.02224 0,12.04421 0,18.06656 0,8.02952 0,16.05932 0,24.08862 0,1.0037 0,2.0074 0,3.0112 0,1.0034 -0.46322,2.3011 0,3.0109 2.62031,4.0148 1.96523,-5.0184 1.96523,3.0111 0,5.0186 0,10.037 0,15.0556 0,2.0074 0,4.0149 0,6.0224 0,1.0034 0.65508,3.0108 0,3.0108 -0.65508,0 0,-2.0074 0,-3.0108"
       id="path4279" />
    <path
       style="fill:none;stroke:#0000ef;stroke-width:0.94447386px;stroke-linecap:butt;stroke-linejoin:miter;stroke-opacity:1"
       d="m 128.90441,953.40364 c -3.43273,0.22765 -1.15603,23.47509 -1.92377,26.49641 -0.40557,1.59594 -1.5182,2.18929 -1.92377,3.78523 -0.2868,1.1283 0,2.52354 0,3.78498 0,1.26168 0,2.52354 0,3.78527 0,7.57051 0,15.14037 0,22.71117 0,3.7849 0,7.5701 0,11.3555 0,1.2617 0,5.047 0,3.7853 0,-2.5236 0,-10.0943 0,-7.5707 0,3.7854 -0.60836,7.7646 0,11.3556 0.20278,1.1969 1.47034,-0.8923 1.92377,0 0.63809,1.2557 -0.63812,6.3151 0,7.5705 0.45343,0.8921 1.47034,-0.8921 1.92377,0 0.45344,0.8921 0,2.5235 0,3.7853 0,1.2618 0,2.5236 0,3.7854"
       id="path4281" />
    <path
       style="fill:none;stroke:#0000f1;stroke-width:0.89449459px;stroke-linecap:butt;stroke-linejoin:miter;stroke-opacity:1"
       d="m 144.64986,953.18414 c 0,22.58936 0,45.17835 0,67.76716 0,2.3568 0.34854,15.7167 0,16.9418 -0.40638,1.4287 -1.52127,1.9598 -1.92765,3.3885 -0.28736,1.0103 0,2.2589 0,3.3885 0,1.1294 0,2.259 0,3.3885"
       id="path4283" />
    <path
       style="fill:none;stroke:#0000f1;stroke-width:1.15755737px;stroke-linecap:butt;stroke-linejoin:miter;stroke-opacity:1"
       d="m 160.39015,983.79206 c 0,32.06324 0,34.35394 0,61.22454"
       id="path4285" />
    <path
       style="fill:none;stroke:#0000fc;stroke-width:1.84614182px;stroke-linecap:butt;stroke-linejoin:miter;stroke-opacity:1"
       d="m 178.07714,1017.8381 c 0,9.5481 0,18.7653 0,28.3136"
       id="path4287" />
    <text
       xml:space="preserve"
       style="font-size:49.94060135px;font-style:normal;font-weight:normal;fill:#000000;fill-opacity:1;stroke:none;font-family:Bitstream Vera Sans"
       x="104.21857"
       y="658.17188"
       id="text4289"
       transform="scale(0.6685681,1.4957339)"><tspan
         sodipodi:role="line"
         id="tspan4291"
         x="104.21857"
         y="658.17188">GC</tspan></text>
  </g>
</svg>
