<?xml version="1.0" encoding="UTF-8" standalone="no"?>
<!-- Created with Inkscape (http://www.inkscape.org/) -->

<svg
   xmlns:dc="http://purl.org/dc/elements/1.1/"
   xmlns:cc="http://creativecommons.org/ns#"
   xmlns:rdf="http://www.w3.org/1999/02/22-rdf-syntax-ns#"
   xmlns:svg="http://www.w3.org/2000/svg"
   xmlns="http://www.w3.org/2000/svg"
   xmlns:sodipodi="http://sodipodi.sourceforge.net/DTD/sodipodi-0.dtd"
   xmlns:inkscape="http://www.inkscape.org/namespaces/inkscape"
   width="50"
   height="50"
   id="svg3604"
   version="1.1"
   inkscape:version="0.47pre4 "
   sodipodi:docname="rotate.svg">
  <defs
     id="defs3606">
    <inkscape:perspective
       sodipodi:type="inkscape:persp3d"
       inkscape:vp_x="0 : 526.18109 : 1"
       inkscape:vp_y="0 : 1000 : 0"
       inkscape:vp_z="744.09448 : 526.18109 : 1"
       inkscape:persp3d-origin="372.04724 : 350.78739 : 1"
       id="perspective3612" />
  </defs>
  <sodipodi:namedview
     id="base"
     pagecolor="#ffffff"
     bordercolor="#666666"
     borderopacity="1.0"
     inkscape:pageopacity="0.0"
     inkscape:pageshadow="2"
     inkscape:zoom="3.959798"
     inkscape:cx="69.954749"
     inkscape:cy="10.746328"
     inkscape:document-units="px"
     inkscape:current-layer="layer1"
     showgrid="false"
     inkscape:window-width="1680"
     inkscape:window-height="994"
     inkscape:window-x="-4"
     inkscape:window-y="-4"
     inkscape:window-maximized="1" />
  <metadata
     id="metadata3609">
    <rdf:RDF>
      <cc:Work
         rdf:about="">
        <dc:format>image/svg+xml</dc:format>
        <dc:type
           rdf:resource="http://purl.org/dc/dcmitype/StillImage" />
        <dc:title />
      </cc:Work>
    </rdf:RDF>
  </metadata>
  <g
     inkscape:label="Layer 1"
     inkscape:groupmode="layer"
     id="layer1"
     transform="translate(0,-1002.3622)">
    <path
       sodipodi:type="arc"
       style="opacity:0.4070352;fill:#ffffff;fill-opacity:1;stroke:#cccccc;stroke-width:2"
       id="path3616"
       sodipodi:cx="25.001276"
       sodipodi:cy="24.998724"
       sodipodi:rx="24.748737"
       sodipodi:ry="24.748737"
       d="m 49.750013,24.998724 a 24.748737,24.748737 0 1 1 -49.49747432,0 24.748737,24.748737 0 1 1 49.49747432,0 z"
       transform="matrix(0.97557978,0,0,0.97047769,0.73680684,1003.1002)" />
    <path
       style="fill:none;stroke:#000000;stroke-width:2;stroke-linecap:butt;stroke-linejoin:miter;stroke-opacity:1;stroke-miterlimit:4;stroke-dasharray:none"
       d="m 13.157839,1038.9621 c 0,-0.1773 0.07604,-0.3733 0,-0.5318 -0.03802,-0.079 -0.194932,0.063 -0.255047,0 -0.120231,-0.1254 0.07604,-0.3733 0,-0.5319 -0.05377,-0.1121 -0.201279,-0.1538 -0.255048,-0.2659 -0.07604,-0.1585 0.07604,-0.3732 0,-0.5318 -0.05377,-0.1121 -0.217028,-0.147 -0.255048,-0.2659 -0.07651,-0.2393 0.07651,-0.5584 0,-0.7977 -0.06011,-0.188 -0.194933,-0.3438 -0.255047,-0.5318 -0.04796,-0.1501 0,-0.623 0,-0.7978 0,-0.4431 0,-0.8863 0,-1.3295 0,-1.5068 0,-3.0136 0,-4.5204 0,-0.7091 0,-1.4182 0,-2.1273 0,-0.091 -0.04601,-0.9197 0,-1.0636 0.06011,-0.1881 0.194932,-0.3438 0.255047,-0.5318 0.02689,-0.084 -0.02688,-0.1819 0,-0.266 0.06011,-0.188 0.208941,-0.3395 0.255048,-0.5318 0.04124,-0.172 -0.07604,-0.3732 0,-0.5318 0.03802,-0.079 0.170032,0 0.255048,0 0.08502,-0.1773 0.194932,-0.3438 0.255047,-0.5318 0.127524,-0.3989 -0.255047,-0.2659 0,-0.7977 0.03802,-0.079 0.194932,0.063 0.255048,0 0.06011,-0.063 -0.03802,-0.1867 0,-0.2659 0.107538,-0.2243 0.402558,-0.3076 0.510096,-0.5319 0.07604,-0.1585 -0.07604,-0.3732 0,-0.5318 0.107537,-0.2242 0.402557,-0.3076 0.510096,-0.5318 0.03802,-0.079 -0.03802,-0.1866 0,-0.2659 0.02441,-0.051 0.971369,-1.0382 1.02019,-1.0636 0.07604,-0.04 0.194933,0.063 0.255048,0 0.06011,-0.063 -0.06011,-0.2033 0,-0.2659 0.06011,-0.063 0.179007,0.04 0.255048,0 0.107538,-0.056 0.15501,-0.1964 0.255048,-0.2659 0.158174,-0.11 0.351922,-0.156 0.510095,-0.266 0.100035,-0.07 0.147511,-0.2098 0.255048,-0.2659 0.07604,-0.04 0.179008,0.04 0.255048,0 0.215075,-0.1121 0.310019,-0.3927 0.510096,-0.5318 0.12844,-0.5858 0.524682,-0.1405 0.765143,-0.2659 0.107537,-0.056 0.15501,-0.1964 0.255048,-0.2659 0.158174,-0.1099 0.351922,-0.156 0.510095,-0.2659 0.200077,-0.1391 0.295021,-0.4197 0.510096,-0.5318 0.07604,-0.04 0.174394,0.028 0.255048,0 1.847417,-0.642 -0.402111,0.077 0.765143,-0.5318 0.07604,-0.04 0.179007,0.04 0.255048,0 0.107538,-0.056 0.15501,-0.1964 0.255047,-0.2659 0.158175,-0.11 0.351922,-0.156 0.510097,-0.2659 0.100034,-0.07 0.147509,-0.2099 0.255047,-0.266 0.152082,-0.079 0.348789,0.056 0.510096,0 0.180346,-0.063 0.329749,-0.2032 0.510095,-0.2659 0.08065,-0.028 0.174395,0.028 0.255049,0 0.180345,-0.063 0.329748,-0.2032 0.510095,-0.2659 0.138033,-0.048 0.933302,0 1.02019,0 0.680128,0 1.360255,0 2.040383,0 0.680128,0 1.360256,0 2.040383,0 0.255048,0 0.51771,-0.065 0.765143,0 0.36885,0.096 0.65134,0.4357 1.020192,0.5318 0.164955,0.043 0.358013,-0.079 0.510095,0 0.07604,0.04 -0.06011,0.2033 0,0.266 0.06011,0.063 0.179007,-0.04 0.255047,0 0.215076,0.1121 0.29502,0.4197 0.510096,0.5318 0.07604,0.04 0.179007,-0.04 0.255047,0 0.469548,0.2447 0.04055,0.5529 0.510097,0.7977 0.07604,0.04 0.194932,-0.063 0.255047,0 0.06011,0.063 -0.03802,0.1866 0,0.2659 0.05377,0.1121 0.201279,0.1538 0.255048,0.2659 0.03802,0.079 -0.03802,0.1866 0,0.2659 0.107537,0.2243 0.402558,0.3076 0.510095,0.5318 0.03802,0.079 -0.06011,0.2033 0,0.2659 0.06011,0.063 0.217028,-0.079 0.255048,0 0.07604,0.1586 -0.05377,0.3637 0,0.5319 0.03802,0.1189 0.20128,0.1537 0.255048,0.2659 0.05675,0.1183 -0.03888,0.942 0,1.0636 0.03802,0.1189 0.201279,0.1538 0.255048,0.2659 0.03802,0.079 0,0.1773 0,0.2659 0,0.089 0,0.1773 0,0.2659 0,0.4432 0,0.8864 0,1.3296 0,0.089 0.06011,0.2032 0,0.2659 -0.06011,0.063 -0.170032,0 -0.255048,0 -0.08502,0 -0.194932,0.063 -0.255048,0 -0.06011,-0.063 0.06011,-0.2033 0,-0.2659 -0.06011,-0.063 -0.194932,0.063 -0.255048,0 -0.06011,-0.063 0.06011,-0.2033 0,-0.2659 -0.06011,-0.063 -0.194932,0.063 -0.255047,0 -0.06011,-0.063 0.06011,-0.2033 0,-0.266 -0.06011,-0.063 -0.194932,0.063 -0.255048,0 -0.06011,-0.063 0.06011,-0.2032 0,-0.2659 -0.06011,-0.063 -0.194932,0.063 -0.255048,0 -0.06011,-0.063 0.06011,-0.2032 0,-0.2659 -0.06011,-0.063 -0.194933,0.063 -0.255047,0 -0.06011,-0.063 0.06011,-0.2032 0,-0.2659 -0.06011,-0.063 -0.194933,0.063 -0.255049,0 -0.06011,-0.063 0.06011,-0.2032 0,-0.2659 -0.06011,-0.063 -0.194932,0.063 -0.255048,0 -0.06011,-0.063 0.06011,-0.2032 0,-0.2659 -0.06011,-0.063 -0.194932,0.063 -0.255047,0 -0.06011,-0.063 0.06011,-0.2032 0,-0.2659 -0.06011,-0.063 -0.179008,0.04 -0.255048,0 -0.118107,-0.062 -0.870186,-0.9072 -1.02019,-1.0636"
       id="path4270" />
    <path
       style="fill:none;stroke:#000000;stroke-width:1.96871543;stroke-linecap:butt;stroke-linejoin:miter;stroke-miterlimit:4;stroke-opacity:1;stroke-dasharray:none"
       d="m 35.080153,1022.8308 c 0.09478,-0.1448 -0.09478,-0.4697 0,-0.6146 0.04739,-0.073 0.15367,0.072 0.20106,0 0.04739,-0.073 -0.02998,-0.2157 0,-0.3074 0.04239,-0.1296 0.158672,-0.1777 0.20106,-0.3073 0.02998,-0.091 -0.02998,-0.2158 0,-0.3074 0.04239,-0.1295 0.158672,-0.1777 0.20106,-0.3073 0.05994,-0.1833 -0.05994,-0.4315 0,-0.6148 0.04239,-0.1295 0.158673,-0.1776 0.201059,-0.3073 0.02998,-0.091 -0.04739,-0.2349 0,-0.3073 0.04739,-0.073 0.141116,0.046 0.20106,0 0.169549,-0.1296 0.232572,-0.4851 0.40212,-0.6147 0.05994,-0.046 0.15367,0.072 0.20106,0 0.04111,-0.063 -0.03986,-0.8002 0,-0.922 0.04239,-0.1296 0.158672,-0.1778 0.20106,-0.3075 0.0306,-0.094 0,-0.7836 0,-0.922"
       id="path4276" />
  </g>
</svg>
